solid OpenSCAD_Model
  facet normal 0.809015 0.587788 -9.94443e-20
    outer loop
      vertex 0.868788 0.868788 80.2277
      vertex 0.463525 1.42658 -100
      vertex 0.463525 1.42658 86.9889
    endloop
  endfacet
  facet normal 0.809017 0.587786 -0
    outer loop
      vertex 1.5 0 -100
      vertex 0.868788 0.868788 80.2277
      vertex 1.5 0 87.8788
    endloop
  endfacet
  facet normal 0.809016 0.587787 -8.26715e-09
    outer loop
      vertex 0.868788 0.868788 80.2277
      vertex 1.5 0 -100
      vertex 0.463525 1.42658 -100
    endloop
  endfacet
  facet normal -1 0 0
    outer loop
      vertex -1.21352 -0.881678 -100
      vertex -1.21352 0.881678 84.4064
      vertex -1.21352 0.881678 -100
    endloop
  endfacet
  facet normal -1 -0 0
    outer loop
      vertex -1.21352 0.881678 84.4064
      vertex -1.21352 -0.881678 -100
      vertex -1.21352 -0.881678 84.4064
    endloop
  endfacet
  facet normal -0.309014 0.951057 0
    outer loop
      vertex 0.463525 1.42658 86.9889
      vertex 0.463525 1.42658 -100
      vertex -0.963059 0.963059 81.3704
    endloop
  endfacet
  facet normal -0.309015 0.951057 -9.06551e-09
    outer loop
      vertex -1.21352 0.881678 -100
      vertex -0.963059 0.963059 81.3704
      vertex 0.463525 1.42658 -100
    endloop
  endfacet
  facet normal -0.309021 0.951055 -1.2872e-20
    outer loop
      vertex -0.963059 0.963059 81.3704
      vertex -1.21352 0.881678 -100
      vertex -1.21352 0.881678 84.4064
    endloop
  endfacet
  facet normal -0 0 1
    outer loop
      vertex -2.5 2.5 100
      vertex 2.5 -2.5 100
      vertex 2.5 2.5 100
    endloop
  endfacet
  facet normal 0 0 1
    outer loop
      vertex 2.5 -2.5 100
      vertex -2.5 2.5 100
      vertex -2.5 -2.5 100
    endloop
  endfacet
  facet normal 0 0 -1
    outer loop
      vertex 0.463525 -1.42658 -100
      vertex 0.463525 1.42658 -100
      vertex 1.5 0 -100
    endloop
  endfacet
  facet normal 0 0 -1
    outer loop
      vertex -1.21352 -0.881678 -100
      vertex 0.463525 1.42658 -100
      vertex 0.463525 -1.42658 -100
    endloop
  endfacet
  facet normal 0 0 -1
    outer loop
      vertex 0.463525 1.42658 -100
      vertex -1.21352 -0.881678 -100
      vertex -1.21352 0.881678 -100
    endloop
  endfacet
  facet normal 0.809017 -0.587786 1.60406e-19
    outer loop
      vertex 0.868788 -0.868788 80.2277
      vertex 1.5 0 -100
      vertex 1.5 0 87.8788
    endloop
  endfacet
  facet normal 0.809015 -0.587788 0
    outer loop
      vertex 0.463525 -1.42658 -100
      vertex 0.868788 -0.868788 80.2277
      vertex 0.463525 -1.42658 86.9889
    endloop
  endfacet
  facet normal 0.809016 -0.587787 -8.26715e-09
    outer loop
      vertex 0.868788 -0.868788 80.2277
      vertex 0.463525 -1.42658 -100
      vertex 1.5 0 -100
    endloop
  endfacet
  facet normal -0.309021 -0.951055 -0
    outer loop
      vertex -1.21352 -0.881678 84.4064
      vertex -1.21352 -0.881678 -100
      vertex -0.963059 -0.963059 81.3704
    endloop
  endfacet
  facet normal -0.309015 -0.951057 -9.06551e-09
    outer loop
      vertex 0.463525 -1.42658 -100
      vertex -0.963059 -0.963059 81.3704
      vertex -1.21352 -0.881678 -100
    endloop
  endfacet
  facet normal -0.309014 -0.951057 -2.2845e-19
    outer loop
      vertex -0.963059 -0.963059 81.3704
      vertex 0.463525 -1.42658 -100
      vertex 0.463525 -1.42658 86.9889
    endloop
  endfacet
  facet normal -0.996614 -2.65394e-05 -0.0822184
    outer loop
      vertex -1.21352 0.881678 84.4064
      vertex -2.5 2.5 100
      vertex -0.963059 0.963059 81.3704
    endloop
  endfacet
  facet normal -0.996614 0 -0.0822212
    outer loop
      vertex -1.21352 -0.881678 84.4064
      vertex -2.5 2.5 100
      vertex -1.21352 0.881678 84.4064
    endloop
  endfacet
  facet normal -0.996614 2.08212e-17 -0.0822212
    outer loop
      vertex -1.21352 -0.881678 84.4064
      vertex -2.5 -2.5 100
      vertex -2.5 2.5 100
    endloop
  endfacet
  facet normal -0.996614 2.65394e-05 -0.0822184
    outer loop
      vertex -2.5 -2.5 100
      vertex -1.21352 -0.881678 84.4064
      vertex -0.963059 -0.963059 81.3704
    endloop
  endfacet
  facet normal 0.996614 -1.78451e-06 -0.0822204
    outer loop
      vertex 2.5 2.5 100
      vertex 1.5 0 87.8788
      vertex 0.868788 0.868788 80.2277
    endloop
  endfacet
  facet normal 0.996614 1.78451e-06 -0.0822204
    outer loop
      vertex 1.5 0 87.8788
      vertex 2.5 -2.5 100
      vertex 0.868788 -0.868788 80.2277
    endloop
  endfacet
  facet normal 0.996614 0 -0.0822207
    outer loop
      vertex 2.5 -2.5 100
      vertex 1.5 0 87.8788
      vertex 2.5 2.5 100
    endloop
  endfacet
  facet normal 0 -0.996614 -0.082221
    outer loop
      vertex -2.5 -2.5 100
      vertex 0.463525 -1.42658 86.9889
      vertex 2.5 -2.5 100
    endloop
  endfacet
  facet normal 2.60919e-06 -0.996614 -0.0822204
    outer loop
      vertex 0.463525 -1.42658 86.9889
      vertex -2.5 -2.5 100
      vertex -0.963059 -0.963059 81.3704
    endloop
  endfacet
  facet normal -6.27075e-06 -0.996614 -0.08222
    outer loop
      vertex 2.5 -2.5 100
      vertex 0.463525 -1.42658 86.9889
      vertex 0.868788 -0.868788 80.2277
    endloop
  endfacet
  facet normal 0 0.996614 -0.082221
    outer loop
      vertex 2.5 2.5 100
      vertex 0.463525 1.42658 86.9889
      vertex -2.5 2.5 100
    endloop
  endfacet
  facet normal -6.27075e-06 0.996614 -0.08222
    outer loop
      vertex 0.463525 1.42658 86.9889
      vertex 2.5 2.5 100
      vertex 0.868788 0.868788 80.2277
    endloop
  endfacet
  facet normal 2.60919e-06 0.996614 -0.0822204
    outer loop
      vertex -2.5 2.5 100
      vertex 0.463525 1.42658 86.9889
      vertex -0.963059 0.963059 81.3704
    endloop
  endfacet
  facet normal 0.806382 0.585872 0.0806382
    outer loop
      vertex 0.309016 0.951056 -110
      vertex 0 0 -100
      vertex 1 0 -110
    endloop
  endfacet
  facet normal -0.308011 -0.947959 0.0806382
    outer loop
      vertex 0 0 -100
      vertex -0.809016 -0.587785 -110
      vertex 0.309016 -0.951056 -110
    endloop
  endfacet
  facet normal -0.996743 0 0.0806381
    outer loop
      vertex -0.809016 0.587785 -110
      vertex -0.809016 -0.587785 -110
      vertex 0 0 -100
    endloop
  endfacet
  facet normal -0.308011 0.947959 0.0806382
    outer loop
      vertex 0.309016 0.951056 -110
      vertex -0.809016 0.587785 -110
      vertex 0 0 -100
    endloop
  endfacet
  facet normal 0 0 -1
    outer loop
      vertex 0.309016 -0.951056 -110
      vertex 0.309016 0.951056 -110
      vertex 1 0 -110
    endloop
  endfacet
  facet normal 0 0 -1
    outer loop
      vertex -0.809016 -0.587785 -110
      vertex 0.309016 0.951056 -110
      vertex 0.309016 -0.951056 -110
    endloop
  endfacet
  facet normal 0 0 -1
    outer loop
      vertex 0.309016 0.951056 -110
      vertex -0.809016 -0.587785 -110
      vertex -0.809016 0.587785 -110
    endloop
  endfacet
  facet normal 0.806382 -0.585872 0.0806382
    outer loop
      vertex 1 0 -110
      vertex 0 0 -100
      vertex 0.309016 -0.951056 -110
    endloop
  endfacet
endsolid OpenSCAD_Model
